<svg xmlns="http://www.w3.org/2000/svg" xmlns:xlink="http://www.w3.org/1999/xlink" width="1920" height="1080" viewBox="0 0 1920 1080">
  <defs>
    <clipPath id="clip-bg">
      <rect width="1920" height="1080"/>
    </clipPath>
  </defs>
  <g id="bg" clip-path="url(#clip-bg)">
    <rect width="1920" height="1080" fill="#010e27"/>
    <g id="Background" transform="translate(-401.96 -277.78)" opacity="0.77">
      <g id="Object" transform="translate(-601.521)">
        <g id="Group_3531" data-name="Group 3531" transform="translate(-1590.547 -916.584)" opacity="0.72">
          <g id="Group_217" data-name="Group 217" transform="translate(2245.71 762.265)" opacity="0.37">
            <path id="Path_545" data-name="Path 545" d="M780.246,777.635H495.416c-103.277,0-187-101.284-187-226.22V206.849H593.249c103.272,0,187,101.284,187,226.22Z" transform="translate(446.254 436.172)" fill="none" stroke="#ff00cf" stroke-miterlimit="10" stroke-width="0.75"/>
            <path id="Path_546" data-name="Path 546" d="M303.114,201.778c8.492,0,295.409,4.61,310.219,7.4,115.064,21.667,211.685,111.683,207.5,242.4-24.328,68.181,49.64,374.5,30.577,374.5-8.548,0-297.367-5.364-314.225-8.555C419.888,795.331,320.825,704.467,325.126,573.884,352.385,500.375,284.051,201.778,303.114,201.778Z" transform="translate(417.245 414.678)" fill="none" stroke="#f40ad1" stroke-miterlimit="10" stroke-width="0.75"/>
            <path id="Path_547" data-name="Path 547" d="M298.6,196.707c16.988,0,306.071,8.618,335.613,14.794C762.1,238.249,889.19,337.16,862.207,470.091c-29.274,144.235,99.28,404.434,61.159,404.434-17.105,0-310-10.006-343.625-17.109C447.386,829.456,314.805,728.764,342.628,596.347,375.448,440.188,260.48,196.707,298.6,196.707Z" transform="translate(387.444 393.184)" fill="none" stroke="#e914d4" stroke-miterlimit="10" stroke-width="0.75"/>
            <path id="Path_548" data-name="Path 548" d="M293.56,191.636c25.48,0,316.8,12.19,361.007,22.191C795.367,245.678,933.118,350.2,903.06,488.6c-46.8,215.465,148.911,434.367,91.736,434.367-25.658,0-322.721-14.16-373.019-25.664-147.521-33.742-293.144-140.768-262.169-278.5C412.049,385.6,236.381,191.636,293.56,191.636Z" transform="translate(358.17 371.689)" fill="none" stroke="#df1ed6" stroke-miterlimit="10" stroke-width="0.75"/>
            <path id="Path_549" data-name="Path 549" d="M288.451,186.565c33.977,0,327.589,15.449,386.4,29.588C828.63,253.117,977,363.144,943.841,507.117c-65.9,286.14,198.55,464.3,122.317,464.3-34.21,0-335.5-17.958-402.419-34.219C500.993,897.653,342.374,784.42,376.515,641.274,450.357,331.654,212.214,186.565,288.451,186.565Z" transform="translate(328.964 350.195)" fill="none" stroke="#d428d8" stroke-miterlimit="10" stroke-width="0.75"/>
            <path id="Path_550" data-name="Path 550" d="M283.285,181.493c42.473,0,338.419,18.477,411.794,36.99C861.883,260.57,1020.845,376,984.565,525.63c-86.384,356.29,248.19,494.234,152.895,494.234-42.759,0-348.327-21.5-431.81-42.773C527.617,931.729,356.032,812.4,393.365,663.741,490.154,278.319,187.989,181.493,283.285,181.493Z" transform="translate(299.816 328.697)" fill="none" stroke="#c932da" stroke-miterlimit="10" stroke-width="0.75"/>
            <path id="Path_551" data-name="Path 551" d="M278.07,176.422c50.965,0,349.293,21.306,437.188,44.387,179.869,47.226,349.4,167.977,309.981,323.334-108.066,425.949,297.83,524.163,183.476,524.163-51.311,0-361.193-24.847-461.209-51.323C554.153,965.8,369.62,840.456,410.166,686.2,531.245,225.555,163.716,176.422,278.07,176.422Z" transform="translate(270.717 307.203)" fill="none" stroke="#be3ddd" stroke-miterlimit="10" stroke-width="0.75"/>
            <path id="Path_552" data-name="Path 552" d="M272.817,171.351c59.457,0,360.188,23.993,462.577,51.784,192.968,52.371,373.05,178.365,330.482,339.521-130.8,495.151,347.465,554.1,214.053,554.1-59.864,0-374.1-28.048-490.608-59.878-208.705-57.023-406.173-188.292-362.4-348.2C573.466,173.321,139.4,171.351,272.817,171.351Z" transform="translate(241.66 285.709)" fill="none" stroke="#b447df" stroke-miterlimit="10" stroke-width="0.75"/>
            <path id="Path_553" data-name="Path 553" d="M267.527,166.872c67.953,0,371.118,26.56,487.971,59.181,206.086,57.52,396.72,188.691,350.977,355.7-154.449,563.94,397.106,584.035,244.635,584.035-68.421,0-387.024-31.134-520-68.438C607.02,1034.5,396.63,897.364,443.65,731.728,616.689,122.165,115.052,166.872,267.527,166.872Z" transform="translate(212.636 263.623)" fill="none" stroke="#a951e1" stroke-miterlimit="10" stroke-width="0.75"/>
            <path id="Path_554" data-name="Path 554" d="M262.206,164.459c76.445,0,382.066,29.038,513.364,66.573,219.228,62.68,420.4,198.974,371.474,371.9-178.9,632.33,446.745,613.963,275.212,613.963-76.969,0-399.968-34.119-549.4-76.987-239.477-68.7-462.8-211.636-412.513-383.055C660.789,73.532,90.674,164.459,262.206,164.459Z" transform="translate(183.641 239.47)" fill="none" stroke="#9e5be4" stroke-miterlimit="10" stroke-width="0.75"/>
            <path id="Path_555" data-name="Path 555" d="M256.861,163.933c84.941,0,393.034,31.437,538.758,73.975,232.384,67.846,444.095,209.2,391.974,388.084-204.076,700.364,496.381,643.9,305.789,643.9-85.522,0-412.937-37.032-578.793-85.542C659.695,1109.8,423.452,961.112,477.016,783.863,705.663,27.2,66.269,163.933,256.861,163.933Z" transform="translate(154.673 213.426)" fill="none" stroke="#9365e6" stroke-miterlimit="10" stroke-width="0.75"/>
            <path id="Path_556" data-name="Path 556" d="M251.492,164.787c93.438,0,404.021,33.763,564.148,81.372C1061.2,319.17,1283.448,465.548,1228.114,650.43c-229.881,768.063,546.02,673.831,336.371,673.831-94.074,0-425.924-39.887-608.193-94.1-270.314-80.4-519.483-234.78-462.629-417.907C751.22-17.36,41.847,164.787,251.492,164.787Z" transform="translate(125.727 186.006)" fill="none" stroke="#896fe8" stroke-miterlimit="10" stroke-width="0.75"/>
            <path id="Path_557" data-name="Path 557" d="M246.1,166.623c101.93,0,415.02,36.037,589.541,88.769,258.744,78.176,491.526,229.536,432.97,420.453-256.241,835.469,595.656,703.764,366.953,703.764-102.627,0-438.92-42.679-637.592-102.651C712.228,1190.7,450.137,1030.663,510.291,841.621,797.391-60.593,17.4,166.623,246.1,166.623Z" transform="translate(96.8 157.606)" fill="none" stroke="#7e79ea" stroke-miterlimit="10" stroke-width="0.75"/>
            <path id="Path_558" data-name="Path 558" d="M240.7,169.159c110.422,0,426.024,38.268,614.93,96.166,271.934,83.352,515.252,239.657,453.466,436.641-283.1,902.592,645.3,733.7,397.53,733.7-111.175,0-451.924-45.435-666.982-111.206C738.447,1232.335,463.43,1066.69,526.9,871.692,844.1-102.795-7.064,169.159,240.7,169.159Z" transform="translate(67.893 128.505)" fill="none" stroke="#7383ed" stroke-miterlimit="10" stroke-width="0.75"/>
            <path id="Path_559" data-name="Path 559" d="M235.283,172.205c118.918,0,437.045,40.453,640.324,103.563C1160.741,364.291,1414.6,525.51,1349.574,728.6c-310.419,969.452,694.931,763.626,428.107,763.626-119.733,0-464.942-48.143-696.382-119.755-316.65-97.984-604.594-269.214-537.8-470.194C891.3-144.193-31.541,172.205,235.283,172.205Z" transform="translate(38.997 98.893)" fill="none" stroke="#688def" stroke-miterlimit="10" stroke-width="0.75"/>
            <path id="Path_560" data-name="Path 560" d="M229.851,175.626c127.41,0,448.079,42.606,665.718,110.96,298.341,93.7,562.74,259.8,494.462,469.015C1051.9,1791.678,2134.6,1549.16,1848.72,1549.16c-128.285,0-477.968-50.831-725.777-128.316C790.833,1317,489.955,1140.222,560.082,933.233,938.934-184.934-56.031,175.626,229.851,175.626Z" transform="translate(10.114 68.908)" fill="none" stroke="#5e97f1" stroke-miterlimit="10" stroke-width="0.75"/>
            <path id="Path_561" data-name="Path 561" d="M224.408,179.325c135.906,0,459.117,44.733,691.112,118.362,311.558,98.879,586.493,269.837,514.958,485.2-366.2,1102.487,794.211,823.5,489.266,823.5-136.833,0-491-53.487-755.172-136.87C817,1359.8,503.179,1177.5,576.658,964.471,986.963-225.14-80.533,179.325,224.408,179.325Z" transform="translate(-18.757 38.638)" fill="none" stroke="#53a2f4" stroke-miterlimit="10" stroke-width="0.75"/>
            <path id="Path_562" data-name="Path 562" d="M218.954,183.238c144.4,0,470.16,46.828,716.505,125.759,324.778,104.06,610.258,279.848,535.458,501.385-394.6,1168.693,843.846,853.427,519.843,853.427-145.386,0-504.041-56.117-784.571-145.42-363.042-115.575-689.8-303.38-612.969-522.47C1035.34-264.9-105.045,183.238,218.954,183.238Z" transform="translate(-47.616 8.16)" fill="none" stroke="#48acf6" stroke-miterlimit="10" stroke-width="0.75"/>
            <path id="Path_563" data-name="Path 563" d="M213.493,187.312c152.894,0,481.211,48.9,741.895,133.156,338,109.241,634.024,289.843,555.955,517.572-423.292,1234.711,893.486,883.36,550.424,883.36-153.938,0-517.088-58.725-813.966-153.979C869.281,1445.979,529.584,1252.7,609.771,1027.527,1084.036-304.282-129.569,187.312,213.493,187.312Z" transform="translate(-76.465 -22.48)" fill="none" stroke="#3db6f8" stroke-miterlimit="10" stroke-width="0.75"/>
            <path id="Path_564" data-name="Path 564" d="M208.022,191.511c161.387,0,492.267,50.956,767.289,140.553,351.233,114.422,657.8,299.818,576.45,533.76-452.245,1300.55,943.126,913.294,581.006,913.294-162.491,0-530.14-61.323-843.365-162.534-394-127.31-746.641-326.048-663.085-557.323C1133.029-343.338-154.1,191.511,208.022,191.511Z" transform="translate(-105.31 -53.244)" fill="none" stroke="#33c0fa" stroke-miterlimit="10" stroke-width="0.75"/>
            <path id="Path_565" data-name="Path 565" d="M202.543,195.806c169.883,0,503.465,52.386,792.678,147.945,364.64,118.859,681.585,309.776,596.951,549.947-481.445,1366.242,992.766,943.228,611.583,943.228-171.044,0-543.327-63.288-872.756-171.083-409.646-132.433-775.07-337.353-688.145-574.752C1182.278-382.111-178.635,195.806,202.543,195.806Z" transform="translate(-134.144 -84.103)" fill="none" stroke="#28cafd" stroke-miterlimit="10" stroke-width="0.75"/>
          </g>
          <g id="Group_218" data-name="Group 218" transform="translate(0 344.001)" opacity="0.3">
            <path id="Path_567" data-name="Path 567" d="M1202.322,722.622,872.256,1010.155C752.58,1114.409,585.7,1081.563,499.518,936.788L261.833,537.5,591.9,249.965c119.676-104.259,286.558-71.408,372.738,73.367Z" transform="translate(1604.596 601.084)" fill="none" stroke="#ff00cf" stroke-miterlimit="10" stroke-width="0.75"/>
            <path id="Path_568" data-name="Path 568" d="M666.615,221.96c120.391-64.042,291.737-21.086,386.53,117.613,24.649,1.587,276.8,342.68,262.23,355.368-9.912,8.633-348.3,293.977-370.031,307.3-151.232,92.687-328.7,87.391-413.8-68.27C512.426,821.276,227.271,544.236,249.356,525S660.765,189.805,666.615,221.96Z" transform="translate(1559.095 629.017)" fill="none" stroke="#f40ad1" stroke-miterlimit="10" stroke-width="0.75"/>
            <path id="Path_569" data-name="Path 569" d="M742.847,202.682c121.1-23.836,296.917,29.226,400.318,161.853,49.293,3.18,315.91,286.066,286.775,311.453-19.82,17.266-366.143,301.347-410,327.058C847.28,1104.257,624.18,1121.409,565.087,939.874,495.393,725.792,194.22,559.7,238.39,521.218S731.146,138.373,742.847,202.682Z" transform="translate(1511.835 650.604)" fill="none" stroke="#e914d4" stroke-miterlimit="10" stroke-width="0.75"/>
            <path id="Path_570" data-name="Path 570" d="M819.818,206.833c121.819,16.376,302.1,79.549,414.111,206.1,73.942,4.767,355.026,229.458,311.315,267.532-29.728,25.9-383.737,309.378-449.962,346.819-194.22,109.818-436.794,132.8-495.913-58.065-100.1-323.192-437.456-370.623-371.2-428.342S802.271,110.368,819.818,206.833Z" transform="translate(1463.741 636.135)" fill="none" stroke="#df1ed6" stroke-miterlimit="10" stroke-width="0.75"/>
            <path id="Path_571" data-name="Path 571" d="M897.251,212.19c122.53,56.588,307.275,129.866,427.9,250.339,98.587,6.354,394.139,172.844,335.86,223.611-39.641,34.533-401.167,317.875-489.928,366.584-215.872,118.467-477.79,147.379-536.97-52.968C506.1,566.416,130.058,638.688,218.4,561.728S873.854,83.571,897.251,212.19Z" transform="translate(1415.139 620.109)" fill="none" stroke="#d428d8" stroke-miterlimit="10" stroke-width="0.75"/>
            <path id="Path_572" data-name="Path 572" d="M974.942,218.4c123.24,96.8,312.449,180.183,441.687,294.584,123.235,7.942,433.251,116.235,360.4,179.691-49.553,43.166-418.476,326.718-529.894,386.35-237.594,127.153-518.743,162.083-578.027-47.865C515.41,486.815,98.466,679.644,208.9,583.442S945.695,57.624,974.942,218.4Z" transform="translate(1366.263 602.981)" fill="none" stroke="#c932da" stroke-miterlimit="10" stroke-width="0.75"/>
            <path id="Path_573" data-name="Path 573" d="M1052.771,225.228c123.955,137.006,317.629,230.5,455.479,338.83,147.88,9.524,472.364,59.616,384.95,135.77-59.461,51.8-435.7,335.823-569.859,406.1-259.372,135.874-559.665,176.909-619.088-42.763C526.8,407.134,67.017,721.212,199.532,605.773S1017.673,32.3,1052.771,225.228Z" transform="translate(1317.245 585.068)" fill="none" stroke="#be3ddd" stroke-miterlimit="10" stroke-width="0.75"/>
            <path id="Path_574" data-name="Path 574" d="M1130.677,232.523c124.669,177.218,322.808,280.823,469.268,383.075,172.529,11.117,511.476,3.007,409.495,91.849-69.374,60.433-452.855,345.137-609.829,425.87-281.18,144.613-600.558,191.834-660.14-37.666C540,327.347,35.64,763.249,190.241,628.574S1089.728,7.439,1130.677,232.523Z" transform="translate(1268.166 566.561)" fill="none" stroke="#b447df" stroke-miterlimit="10" stroke-width="0.75"/>
            <path id="Path_575" data-name="Path 575" d="M1208.61,240.177c125.383,217.43,327.987,331.134,483.06,427.316,197.173,12.7,550.594-53.607,434.035,47.928-79.282,69.066-469.96,354.619-649.791,445.635-303.031,153.366-641.429,206.848-701.2-32.563C554.757,247.443,4.294,805.646,180.98,651.724S1161.815-17.061,1208.61,240.177Z" transform="translate(1219.068 834.216)" fill="none" stroke="#a951e1" stroke-miterlimit="10" stroke-width="0.75"/>
            <path id="Path_576" data-name="Path 576" d="M1286.553,243.823c90.788,278.538,333.166,381.457,496.848,471.561,221.822,14.291,589.706-110.216,458.58,4.007-89.194,77.7-487.027,364.227-689.756,465.4-324.9,162.141-682.282,221.945-742.258-27.461C570.883,163.148-27.046,844.035,171.725,670.877S1196.7-31.839,1286.553,243.823Z" transform="translate(1169.98 818.918)" fill="none" stroke="#9e5be4" stroke-miterlimit="10" stroke-width="0.75"/>
            <path id="Path_577" data-name="Path 577" d="M1364.488,252.5c93.949,315.167,329.273,467.15,510.636,515.8,240.962,64.64,628.818-166.83,483.125-39.908-99.106,86.333-504.062,373.939-729.722,485.155-346.8,170.921-723.118,237.111-783.319-22.364C588.222,83.547-58.394,887.448,162.462,695.054S1272.158-57.22,1364.488,252.5Z" transform="translate(1120.801 798.598)" fill="none" stroke="#9365e6" stroke-miterlimit="10" stroke-width="0.75"/>
            <path id="Path_578" data-name="Path 578" d="M1442.4,261.3c97.314,352.456,336.129,514.413,524.429,560.047,266.209,64.509,667.931-223.438,507.67-83.829-109.014,94.966-521.077,383.746-769.692,504.921-368.706,179.706-763.932,252.34-824.372-17.261C606.626,3.815-89.76,931,153.182,719.361S1347.555-82.209,1442.4,261.3Z" transform="translate(403.893 778.141)" fill="none" stroke="#896fe8" stroke-miterlimit="10" stroke-width="0.75"/>
            <path id="Path_579" data-name="Path 579" d="M2327.9,332.575c157.647,594.85,536.017,856.109,841.681,921.142,455.814,96.975,1105.7-426.892,832.288-194.732-185.974,157.92-841.437,600.017-1266.161,799.8-610.889,287.339-1258.475,407.959-1353.392-18.542-452.978-2035.468-1621.357-433.864-1206.9-785.8S2175.549-242.256,2327.9,332.575Z" transform="translate(355.156 80.889)" fill="none" stroke="#7e79ea" stroke-miterlimit="10" stroke-width="0.75"/>
            <path id="Path_580" data-name="Path 580" d="M2414.347,346.561c160.284,645.6,536.1,917.493,847.474,977.385,486.265,93.531,1145.537-507.372,854.76-258.719-197.794,169.142-852.121,608.207-1304.379,820.519C2178.8,2183.1,1514.092,2312.208,1420.51,1875.111,952.821-309.324-273.454,1460.552,167.336,1083.613S2260.738-272.154,2414.347,346.561Z" transform="translate(432.837 60.24)" fill="none" stroke="#7383ed" stroke-miterlimit="10" stroke-width="0.75"/>
            <path id="Path_581" data-name="Path 581" d="M2343.871,360.34c152.69,695.954,502.212,977.889,799.437,1032.833,483.189,89.316,1109.543-586.316,821.342-321.407-196.041,180.193-808.193,616.557-1256.934,841.151C2093.766,2220.2,1455.408,2357.738,1368.9,1910,918.418-421.337-284.206,1514.15,152.677,1112.573S2198.688-301.391,2343.871,360.34Z" transform="translate(384.099 39.512)" fill="none" stroke="#688def" stroke-miterlimit="10" stroke-width="0.75"/>
            <path id="Path_582" data-name="Path 582" d="M2427.348,373.928c155.814,745.869,503.933,1037.389,807.9,1087.55,511.829,84.467,1149.127-663.852,844.5-382.93-207.213,191.09-820.935,625.07-1295.724,861.714-636.3,317.138-1292.291,463.045-1378.036,4.63C942.789-531.445-317.684,1567.2,144.1,1141.341S2280.286-330.066,2427.348,373.928Z" transform="translate(335.386 18.722)" fill="none" stroke="#5e97f1" stroke-miterlimit="10" stroke-width="0.75"/>
            <path id="Path_583" data-name="Path 583" d="M2510.29,387.323c159.038,795.354,505.823,1096.085,816.829,1141.617,540.117,79.076,1188.67-740.116,867.773-443.381-218.274,201.845-834.027,633.713-1334.61,882.2-658.62,326.941-1332.328,481.149-1417.406,12.048C967.771-639.806-351.019,1619.743,135.425,1169.925S2361.207-358.251,2510.29,387.323Z" transform="translate(286.697 -2.123)" fill="none" stroke="#53a2f4" stroke-miterlimit="10" stroke-width="0.75"/>
            <path id="Path_584" data-name="Path 584" d="M2592.758,400.546c162.347,844.4,507.87,1154.041,826.164,1195.078,568.085,73.238,1228.172-815.206,891.158-502.854-229.243,212.472-847.437,642.482-1373.59,902.633-680.917,336.674-1372.418,499.136-1456.92,19.316-486.286-2761.276-1863.8-342.885-1352.919-816.4S2441.525-386.015,2592.758,400.546Z" transform="translate(238.031 -23.015)" fill="none" stroke="#48acf6" stroke-miterlimit="10" stroke-width="0.75"/>
            <path id="Path_585" data-name="Path 585" d="M2674.806,413.6c165.735,893.029,510.063,1211.346,835.865,1248,595.762,67.028,1267.642-889.233,914.634-561.421-240.125,222.981-861.116,651.353-1412.653,923.006-703.193,346.347-1412.542,517.026-1496.546,26.459C1019.259-851.821-417.335,1723.5,117.793,1226.575S2521.325-413.414,2674.806,413.6Z" transform="translate(189.387 -43.954)" fill="none" stroke="#3db6f8" stroke-miterlimit="10" stroke-width="0.75"/>
            <path id="Path_586" data-name="Path 586" d="M2756.494,426.5c169.178,941.252,512.363,1268.034,845.877,1300.412,623.175,60.5,1307.081-962.278,938.192-619.174-250.927,233.383-875.036,660.324-1451.78,943.332-725.457,355.984-1452.714,534.823-1536.293,33.5-506.84-3040.3-2002.836-309.8-1443.631-829.9S2600.664-440.485,2756.494,426.5Z" transform="translate(140.764 -64.927)" fill="none" stroke="#33c0fa" stroke-miterlimit="10" stroke-width="0.75"/>
            <path id="Path_587" data-name="Path 587" d="M2837.848,439.227c172.673,989.034,514.788,1324.1,856.177,1352.292,650.346,53.71,1346.5-1034.352,961.825-676.128-261.667,243.671-888.832,670.532-1490.967,963.565-747.276,367.015-1492.922,552.5-1576.132,40.425C1072.4-1058.292-483.274,1825.587,99.859,1282.554S2679.6-467.228,2837.848,439.227Z" transform="translate(92.159 -85.933)" fill="none" stroke="#28cafd" stroke-miterlimit="10" stroke-width="0.75"/>
            <path id="Path_588" data-name="Path 588" d="M2918.921,451.86C3436.664,3497.635,5378.093,557.475,4771.16,1123.3S1775.266,3102.938,1624.9,2154.438c-525.427-3314.272-2141.026-278.174-1534.1-844S2758.17-493.786,2918.921,451.86Z" transform="translate(43.573 -106.968)" fill="none" stroke="#1dd4ff" stroke-miterlimit="10" stroke-width="0.75"/>
          </g>
          <g id="Group_219" data-name="Group 219" transform="translate(994.843)" opacity="0.3">
            <path id="Path_589" data-name="Path 589" d="M3140.985-61.405C3080.2,947.861,2812.292,1373.6,2556.376,1568.561c-520.423,396.45-1083.454-91.289-1681.448,276.15C389.664,2142.878,170.877,2826.3,62.045,3407.323" transform="translate(967.355 61.405)" fill="none" stroke="#0086ff" stroke-miterlimit="10" stroke-width="1"/>
            <path id="Path_590" data-name="Path 590" d="M57.838,3371.65c118.468-557.847,347.34-1224.93,832.44-1525.324,594.435-367.444,1138.666,90.22,1656.322-308.676C2802.572,1339.77,3076.463,918.06,3163.258-59.46" transform="translate(953.344 69.649)" fill="none" stroke="#0683ff" stroke-miterlimit="10" stroke-width="1"/>
            <path id="Path_591" data-name="Path 591" d="M53.631,3335.972c128.1-534.677,367.061-1185.415,852-1488.03,590.875-367.449,1116.3,60.139,1631.2-341.2,256.024-200.813,535.9-618.484,648.7-1564.253" transform="translate(939.333 77.898)" fill="none" stroke="#0c7fff" stroke-miterlimit="10" stroke-width="1"/>
            <path id="Path_592" data-name="Path 592" d="M49.425,3300.3C187.163,2788.792,436.2,2154.4,920.973,1849.562c587.316-367.459,1094.639,31.338,1606.077-373.735,256.431-203.1,541.941-617.374,680.758-1531.4" transform="translate(925.325 86.142)" fill="none" stroke="#137cff" stroke-miterlimit="10" stroke-width="1"/>
            <path id="Path_593" data-name="Path 593" d="M45.218,3264.625c147.373-488.341,406.5-1106.39,891.1-1413.448,583.751-367.47,1072.489,1.624,1580.955-406.262,256.591-205.837,547.973-616.268,712.8-1498.539" transform="translate(911.314 94.39)" fill="none" stroke="#1979ff" stroke-miterlimit="10" stroke-width="1"/>
            <path id="Path_594" data-name="Path 594" d="M41.011,3228.952C198.02,2763.787,467.23,2162.076,951.671,1852.793c580.192-367.475,1050.33-28.11,1555.83-438.783,256.756-208.587,554.015-615.163,744.853-1465.688" transform="translate(897.303 102.634)" fill="none" stroke="#1f76ff" stroke-miterlimit="10" stroke-width="1"/>
            <path id="Path_595" data-name="Path 595" d="M36.8,3193.278c166.644-441.995,445.94-1027.355,930.212-1338.865,576.636-367.485,1028.163-57.882,1530.714-471.315,256.908-211.348,560.051-614.052,776.9-1432.831" transform="translate(883.291 110.878)" fill="none" stroke="#2572ff" stroke-miterlimit="10" stroke-width="1"/>
            <path id="Path_596" data-name="Path 596" d="M32.6,3157.6c191.539-418.824,505.342-989.124,1031.961-1301.572,621.946-369.01,1093.039-87.674,1635.881-503.842,279.309-214.124,615.076-612.947,878.953-1399.974" transform="translate(586.79 119.127)" fill="none" stroke="#2c6fff" stroke-miterlimit="10" stroke-width="1"/>
            <path id="Path_597" data-name="Path 597" d="M28.391,3121.932c201.874-395.658,526.357-949.755,1052.53-1264.283,617.6-369.177,1068.24-117.5,1607.556-536.369,279.285-216.916,621.237-611.836,913.185-1367.122" transform="translate(572.782 127.371)" fill="none" stroke="#326cff" stroke-miterlimit="10" stroke-width="1"/>
            <path id="Path_598" data-name="Path 598" d="M24.184,3086.254c212.2-372.483,547.354-910.376,1073.087-1226.995,613.27-369.329,1043.468-147.342,1579.276-568.89,279.27-219.714,627.4-610.731,947.393-1334.266" transform="translate(558.771 135.619)" fill="none" stroke="#3869ff" stroke-miterlimit="10" stroke-width="1"/>
            <path id="Path_599" data-name="Path 599" d="M19.977,3050.58c222.519-349.312,568.33-870.987,1093.629-1189.7,608.958-369.476,1018.727-177.218,1551.051-601.422C2943.9,1036.936,3298.21,649.838,3646.214-41.951" transform="translate(544.76 143.863)" fill="none" stroke="#3e65ff" stroke-miterlimit="10" stroke-width="1"/>
            <path id="Path_600" data-name="Path 600" d="M15.77,3014.9C248.6,2688.76,605.065,2183.321,1129.925,1862.5c604.662-369.6,994.013-207.115,1522.871-633.949C2932.011,1003.2,3292.508,620.032,3668.488-40" transform="translate(530.748 152.112)" fill="none" stroke="#4462ff" stroke-miterlimit="10" stroke-width="1"/>
            <path id="Path_601" data-name="Path 601" d="M11.564,2979.234c243.122-302.971,610.24-792.177,1134.661-1115.118,600.381-369.722,969.323-237.043,1494.743-666.475,279.178-228.185,645.865-607.41,1049.79-1235.7" transform="translate(516.741 160.356)" fill="none" stroke="#4b5fff" stroke-miterlimit="10" stroke-width="1"/>
            <path id="Path_602" data-name="Path 602" d="M7.357,2943.56c253.408-279.8,631.17-752.756,1155.157-1077.829,596.114-369.822,944.656-266.987,1466.657-699C2908.32,935.7,3281.188,560.43,3713.032-36.115" transform="translate(502.729 168.6)" fill="none" stroke="#515cff" stroke-miterlimit="10" stroke-width="1"/>
            <path id="Path_603" data-name="Path 603" d="M3.15,2907.883c263.684-256.631,652.089-713.325,1175.639-1040.535,591.867-369.911,920.018-296.958,1438.62-731.529,279.107-233.885,658.166-605.194,1117.9-1169.987" transform="translate(488.718 176.849)" fill="none" stroke="#5758ff" stroke-miterlimit="10" stroke-width="1"/>
            <path id="Path_604" data-name="Path 604" d="M-1.057,2872.208c273.955-233.46,672.99-673.883,1196.1-1003.241,587.64-369.989,895.406-326.949,1410.628-764.061,279.063-236.75,664.318-604.083,1151.91-1137.13" transform="translate(474.707 185.093)" fill="none" stroke="#5d55ff" stroke-miterlimit="10" stroke-width="1"/>
            <path id="Path_605" data-name="Path 605" d="M-5.264,2836.536c284.211-210.289,693.881-634.436,1216.555-965.958C1794.713,1500.531,2082.1,1513.617,2593.971,1074,2872.984,834.365,3264.43,471.018,3779.857-30.278" transform="translate(460.696 193.341)" fill="none" stroke="#6452ff" stroke-miterlimit="10" stroke-width="1"/>
            <path id="Path_606" data-name="Path 606" d="M-9.471,2800.863c294.459-187.119,714.754-594.973,1237-928.664,579.218-370.1,846.232-387,1354.77-829.109C2861.258,800.566,3258.9,441.217,3802.13-28.333" transform="translate(446.685 201.585)" fill="none" stroke="#6a4eff" stroke-miterlimit="10" stroke-width="1"/>
            <path id="Path_607" data-name="Path 607" d="M-13.677,2765.184c304.7-163.948,735.615-555.495,1257.419-891.37,575.033-370.136,821.677-417.058,1326.905-861.636C2849.55,766.748,3253.4,411.417,3824.4-26.387" transform="translate(432.677 209.834)" fill="none" stroke="#704bff" stroke-miterlimit="10" stroke-width="1"/>
            <path id="Path_608" data-name="Path 608" d="M-17.884,2729.511c314.927-140.773,756.467-516.011,1277.833-854.077,570.86-370.162,797.141-447.139,1299.076-894.167,278.84-248.338,688.892-599.651,1287.653-1005.709" transform="translate(418.666 218.078)" fill="none" stroke="#7648ff" stroke-miterlimit="10" stroke-width="1"/>
            <path id="Path_609" data-name="Path 609" d="M-22.091,2693.838c325.147-117.608,777.307-476.522,1298.235-816.793,566.707-370.173,772.629-477.235,1271.292-926.689C2826.206,699.09,3242.468,351.81,3868.952-22.5" transform="translate(404.655 226.326)" fill="none" stroke="#7c45ff" stroke-miterlimit="10" stroke-width="1"/>
            <path id="Path_610" data-name="Path 610" d="M-26.3,2658.165c335.359-94.437,798.136-437.012,1318.624-779.5,562.561-370.173,748.129-507.352,1243.542-959.216,278.7-254.2,701.175-597.44,1355.358-940" transform="translate(390.643 234.57)" fill="none" stroke="#8341ff" stroke-miterlimit="10" stroke-width="1"/>
            <path id="Path_611" data-name="Path 611" d="M-30.505,2622.49c345.563-71.267,818.957-397.492,1339-742.2,558.433-370.162,723.646-537.49,1215.835-991.748C2802.948,631.394,3231.637,292.208,3913.5-18.606" transform="translate(376.633 242.815)" fill="none" stroke="#893eff" stroke-miterlimit="10" stroke-width="1"/>
            <path id="Path_612" data-name="Path 612" d="M-34.711,2586.813c355.758-48.09,839.763-357.961,1359.362-704.911,554.323-370.142,699.181-567.644,1188.16-1024.275,278.53-260.1,713.447-595.225,1422.958-874.287" transform="translate(362.625 251.063)" fill="none" stroke="#8f3bff" stroke-miterlimit="10" stroke-width="1"/>
            <path id="Path_613" data-name="Path 613" d="M-38.918,2551.144c365.946-24.926,860.562-318.425,1379.712-667.628,550.23-370.1,674.734-597.818,1160.53-1056.8C2779.759,563.646,3220.9,232.6,3958.044-14.715" transform="translate(348.613 259.307)" fill="none" stroke="#9538ff" stroke-miterlimit="10" stroke-width="1"/>
            <path id="Path_614" data-name="Path 614" d="M-43.125,2515.467c376.125-1.755,881.351-278.874,1400.054-630.334,546.146-370.057,650.3-628.008,1132.927-1089.328C2768.194,529.755,3215.569,202.8,3980.321-12.769" transform="translate(334.602 267.555)" fill="none" stroke="#9b34ff" stroke-miterlimit="10" stroke-width="1"/>
            <path id="Path_615" data-name="Path 615" d="M-47.332,2479.793c386.3,21.415,902.134-239.306,1420.387-593.04,542.077-369.995,625.879-658.214,1105.363-1121.855,278.228-269.041,731.844-591.9,1524.177-775.722" transform="translate(320.591 275.8)" fill="none" stroke="#a231ff" stroke-miterlimit="10" stroke-width="1"/>
            <path id="Path_616" data-name="Path 616" d="M-51.538,2444.12c396.462,44.586,922.907-199.739,1440.7-555.757,538.021-369.922,601.468-688.436,1077.829-1154.382C2745.115,461.95,3204.973,143.189,4024.865-8.878" transform="translate(306.583 284.048)" fill="none" stroke="#a82eff" stroke-miterlimit="10" stroke-width="1"/>
            <path id="Path_617" data-name="Path 617" d="M-55.745,2408.447C350.874,2476.2,887.93,2248.3,1405.268,1889.984,1939.25,1520.141,1982.343,1171.31,2455.6,703.076c278-275.044,744.1-589.682,1591.537-710.009" transform="translate(292.572 292.292)" fill="none" stroke="#ae2aff" stroke-miterlimit="10" stroke-width="1"/>
            <path id="Path_618" data-name="Path 618" d="M-59.952,2372.768C356.817,2463.7,904.482,2252.222,1421.36,1891.6c529.954-369.748,552.69-748.931,1022.865-1219.435C2722.1,394.1,3194.46,83.588,4069.412-4.987" transform="translate(278.561 300.541)" fill="none" stroke="#b427ff" stroke-miterlimit="10" stroke-width="1"/>
            <path id="Path_619" data-name="Path 619" d="M-64.159,2337.095c426.917,114.1,985.189-80.932,1501.6-443.875,525.938-369.644,528.322-779.2,995.434-1251.961,277.73-281.095,756.361-587.471,1658.813-644.3" transform="translate(264.55 308.785)" fill="none" stroke="#bb24ff" stroke-miterlimit="10" stroke-width="1"/>
            <path id="Path_620" data-name="Path 620" d="M-68.366,2301.426c437.053,137.268,1005.939-41.312,1521.882-406.591,521.938-369.523,503.961-809.48,968.029-1284.488C2699.138,326.213,3184.031,23.986,4113.964-1.1" transform="translate(250.539 317.029)" fill="none" stroke="#c121ff" stroke-miterlimit="10" stroke-width="1"/>
            <path id="Path_621" data-name="Path 621" d="M-72.572,2265.838c447.178,160.439,1026.676-1.676,1542.143-369.3,517.959-369.4,479.616-839.781,940.664-1317.015C2687.674,292.342,3178.844-5.731,4136.234.938" transform="translate(236.531 325.188)" fill="none" stroke="#c71dff" stroke-miterlimit="10" stroke-width="1"/>
            <path id="Path_622" data-name="Path 622" d="M-76.779,2232.825c457.3,183.609,1047.415,37.975,1562.4-332,513.986-369.261,455.278-870.091,913.321-1349.547C2676.227,261.037,3173.682-32.871,4158.508,5.544" transform="translate(222.52 330.772)" fill="none" stroke="#cd1aff" stroke-miterlimit="10" stroke-width="1"/>
            <path id="Path_623" data-name="Path 623" d="M-80.986,2202.987c467.422,206.785,1068.149,77.637,1582.654-294.716,510.03-369.109,430.95-900.412,886.011-1382.068C2664.788,232.9,3168.532-56.837,4180.782,13.33" transform="translate(208.509 333.18)" fill="none" stroke="#d317ff" stroke-miterlimit="10" stroke-width="1"/>
            <path id="Path_624" data-name="Path 624" d="M-85.193,2175.765c477.532,229.95,1088.881,117.309,1602.9-257.427,506.084-368.952,406.631-930.749,858.726-1414.6C2653.365,207.356,3163.407-78.191,4203.06,23.721" transform="translate(194.497 332.978)" fill="none" stroke="#da14ff" stroke-miterlimit="10" stroke-width="1"/>
            <path id="Path_625" data-name="Path 625" d="M-89.4,2150.7c487.635,253.121,1110.221,158.065,1623.129-220.133,502.751-367.737,382.322-961.1,831.474-1447.127,276.745-299.467,793.1-580.824,1860.13-447.16" transform="translate(180.487 330.614)" fill="none" stroke="#e010ff" stroke-miterlimit="10" stroke-width="1"/>
            <path id="Path_626" data-name="Path 626" d="M-93.606,2127.45c497.728,276.291,1130.836,197.58,1643.349-182.839,498.728-367.747,358.018-991.46,804.244-1479.654C2630.54,162.394,3153.2-114.756,4247.6,50.649" transform="translate(166.479 326.434)" fill="none" stroke="#e60dff" stroke-miterlimit="10" stroke-width="1"/>
            <path id="Path_627" data-name="Path 627" d="M-97.813,2105.8c507.824,299.467,1151.443,237.1,1663.564-145.551C2060.464,1592.5,1898.672,937.495,2342.8,448.075,2618.647,141.824,3148.13-130.533,4269.877,66.618" transform="translate(152.467 320.654)" fill="none" stroke="#ec0aff" stroke-miterlimit="10" stroke-width="1"/>
            <path id="Path_628" data-name="Path 628" d="M-102.02,2085.4C415.89,2408.028,1070.019,2362,1581.751,1977.135c490.7-367.763,308.888-1052.836,749.872-1544.7,275.8-309.179,811.452-577.5,1960.527-348.6" transform="translate(138.456 313.634)" fill="none" stroke="#f307ff" stroke-miterlimit="10" stroke-width="1"/>
            <path id="Path_629" data-name="Path 629" d="M-106.227,2066.111c527.99,345.8,1192.62,316.12,1703.969-70.968,486.693-367.768,284.877-1082.916,722.728-1577.234,275.74-312.1,817.563-576.392,1993.954-315.743" transform="translate(124.445 305.489)" fill="none" stroke="#f903ff" stroke-miterlimit="10" stroke-width="1"/>
            <path id="Path_630" data-name="Path 630" d="M-110.434,2047.8c538.064,368.978,1213.193,355.636,1724.155-33.674,482.7-367.779,260.891-1113,695.61-1609.761C2585.02,89.326,3133.012-170.924,4336.7,121.476" transform="translate(110.434 296.374)" fill="none" stroke="#f0f" stroke-miterlimit="10" stroke-width="1"/>
          </g>
        </g>
      </g>
    </g>
  </g>
</svg>
