<svg xmlns="http://www.w3.org/2000/svg" xmlns:xlink="http://www.w3.org/1999/xlink" width="4081" height="1000" viewBox="0 0 4081 1000">
  <defs>
    <linearGradient id="linear-gradient" x1="0.5" x2="0.5" y2="1" gradientUnits="objectBoundingBox">
      <stop offset="0" stop-color="#00fbff"/>
      <stop offset="1" stop-color="#fa65ff"/>
    </linearGradient>
    <linearGradient id="linear-gradient-5" x1="0.383" y1="-1.594" x2="0.477" y2="2.26" xlink:href="#linear-gradient"/>
    <clipPath id="clip-logo">
      <rect width="4081" height="1000"/>
    </clipPath>
  </defs>
  <g id="logo" clip-path="url(#clip-logo)">
    <circle id="Ellipse_14" data-name="Ellipse 14" cx="500" cy="500" r="500" fill="url(#linear-gradient)"/>
    <circle id="Ellipse_15" data-name="Ellipse 15" cx="455" cy="455" r="455" transform="translate(45 45)" fill="#03122f"/>
    <g id="Group_144" data-name="Group 144" transform="translate(43.524 127.667)">
      <path id="Path_542" data-name="Path 542" d="M739.43,436.25c-112.918-19.777-146.729-84.916-147.124-85.7L526.639,222.39a10.2,10.2,0,0,0-12.054-5.138c-59.3,17.753-103.367,15.564-130.95-6.481-35.357-28.247-32.179-81.288-32.151-81.819A10.247,10.247,0,0,0,341.773,118c-105.362-5.138-160.951,107.014-171.237,130.035-22.589,9.334-37.809,23.136-45.068,41.192-11.523,28.686,1.777,56.842,2.349,58.024a12.812,12.812,0,0,0,.709,1.252C183.567,430.643,274.509,453.476,278.4,454.42c60.174,14.283,107.208,72.137,116.027,83.591,1.423,1.852,2.869,3.681,4.384,5.481L400.081,545c15.975,19.016,33.539,34.34,52.213,45.548,62.683,37.638,126.1,36.18,127.933,36.076,3.241.143,6.43.211,9.591.211,141.352,0,202.082-135.642,202.7-137.043.1-.234.091-.48.171-.72s.257-.452.326-.709a30.677,30.677,0,0,0-3.681-24.965c-12.58-19.873-46.067-26.446-49.9-27.15ZM330.994,138.388c.76,19.747,6.493,61.625,39.707,88.271,31.767,25.486,79.366,29.687,141.552,12.574l61.734,120.491c1.5,3.052,38.02,75.018,161.829,96.691,10.883,2,30.338,8.642,36.208,17.953a9.832,9.832,0,0,1,1.417,6.07c-22.4,17.907-87.888,33.494-112.471,38.186-119.9,26.263-190.493-44.171-209.734-66.959-7.162-8.465-14.563-17.2-22.6-25.366-19.273-19.541-42.187-38.745-68.107-57.07-19.055-13.46-40.609-25.509-69.885-39.038-52.486-24.245-88.883-62.792-100.366-75.966,11.1-23.388,58.819-112.918,140.73-115.838ZM580.351,606.142c-.629.12-59.922,1.412-117.518-33.168-16.724-10.042-32.556-23.885-47.068-41.17l-1.269-1.5c-1.309-1.572-2.578-3.184-3.841-4.812-9.556-12.409-60.626-75.138-127.475-91-.863-.211-86.437-21.685-137.151-96.679-1.5-3.532-8.945-22.766-1.492-41.119,4.841-11.906,15.151-21.462,30.7-28.487,13.123,15.094,51.092,54.84,106.807,80.578,28.1,12.991,48.663,24.457,66.656,37.168,24.937,17.633,46.919,36.049,65.346,54.732,7.493,7.6,14.644,16.044,22.017,24.766,20.628,24.434,98.114,101.9,229.019,73.234,7.11-1.36,54.264-10.66,90.49-25.543-26.2,38.238-81.905,97.212-175.217,93Z" transform="translate(0)" fill="url(#linear-gradient)"/>
      <path id="Path_543" data-name="Path 543" d="M370.3,271.715a10.277,10.277,0,0,0,4.933-1.269l29.846-16.432a10.241,10.241,0,0,0-9.882-17.941L365.346,252.5a10.24,10.24,0,0,0,4.95,19.21Z" transform="translate(96.822 66.181)" fill="url(#linear-gradient)"/>
      <path id="Path_544" data-name="Path 544" d="M384.4,309.383a10.233,10.233,0,0,0,13.906,4.041l26.308-14.466a10.24,10.24,0,0,0-9.865-17.947l-26.308,14.466a10.229,10.229,0,0,0-4.041,13.906Z" transform="translate(107.516 86.997)" fill="url(#linear-gradient)"/>
    </g>
    <path id="Path_545" data-name="Path 545" d="M126.953-284.375,161.914-78.711,267.969-284.375h76.172L294.727,0H237.3l14.063-81.055L279.1-207.617,170.117,0H130.859L92.773-214.844,74.414-74.8,61.328,0H4.1L53.516-284.375ZM460.156,3.906q-28.32-.586-49.9-13.379t-34.18-36.914q-12.6-24.121-14.551-55.371-2.148-32.031,6.836-68.359t28.906-63.867q19.922-27.539,46.777-41.211a121.092,121.092,0,0,1,58.105-13.086q28.711.586,50.2,13.574t33.789,37.3q12.3,24.316,14.063,55.176,1.953,34.375-7.422,70.7t-29.1,62.891Q543.945-22.07,517.48-8.789A120.755,120.755,0,0,1,460.156,3.906ZM541.211-150l1.563-18.555q1.953-34.766-9.277-52.734t-34.082-18.75q-35.742-1.172-56.738,31.641t-23.73,91.8q-1.953,34.57,9.18,53.223T462.7-43.945q30.664,1.367,50.781-23.926t26.367-71.582Zm184.57,78.906,95.7-213.281h65.625L746.68,0H686.914L635.742-284.375h61.523Zm329.1-52.148H945.9L932.617-47.07h128.125L1052.539,0H867.188L916.6-284.375h184.961l-8.4,47.461H965.625l-11.914,67.773h109.375ZM1246.875,0h-57.227l49.219-284.375h57.227Zm278.906,0h-55.469l-79.1-189.648L1358.2,0h-57.227l49.414-284.375h55.273l79.3,190.039,33.008-190.039H1575ZM1733.4-75.977q4.1-23.242-22.852-35.547l-37.7-15.039q-65.625-29.3-62.3-80.664a74.092,74.092,0,0,1,15.625-42.187q14.258-18.359,40.039-28.809a141.757,141.757,0,0,1,55.664-10.059q41.211.781,66.6,24.512t25,63.574h-57.031q.977-19.336-8.5-30.078t-29.395-11.133q-19.531-.391-33.984,8.887t-17.187,25.488q-3.711,21.289,28.516,33.789l25.781,9.766,14.844,6.836q57.617,28.516,53.906,80.078-1.758,25.2-16.113,43.457T1735.254-5.078q-24.707,9.766-54.395,9.18-30.273-.586-53.906-12.7t-35.937-34.18q-11.523-20.508-10.742-46.875l57.227.2q-2.734,46.289,45.508,47.07,20.9,0,34.375-9.18T1733.4-75.977ZM1878.32,0h-57.227l49.219-284.375h57.227Zm282.031-35.937Q2145.117-16.6,2115.723-6.152t-66.309,9.863q-29.1-.2-51.172-12.793t-34.766-36.23q-12.7-23.633-14.453-53.906-1.953-28.125,5.957-66.113t27.148-66.6q19.238-28.613,46.191-42.773t59.766-13.574q44.531.781,69.727,25.1t28.711,69.629l-55.078-.2q-2.149-23.828-12.7-35.156T2087.3-241.016q-36.133-1.172-56.934,31.738t-23.73,95.41q-1.953,33.4,10.254,51.758t37.207,18.75q29.1.781,49.609-13.867l9.57-49.023h-51.953l7.617-43.164h108.594ZM2423.633,0h-57.227L2387.5-121.875H2277.148L2255.859,0h-57.227l49.414-284.375h57.227l-20.117,115.234H2395.7l19.922-115.234h57.227Zm294.531-236.914h-84.375L2592.773,0h-57.227l41.016-236.914h-83.4l8.4-47.461h225ZM2864.453-75.977q4.1-23.242-22.852-35.547l-37.7-15.039q-65.625-29.3-62.3-80.664a74.092,74.092,0,0,1,15.625-42.187q14.258-18.359,40.039-28.809a141.757,141.757,0,0,1,55.664-10.059q41.211.781,66.6,24.512t25,63.574H2887.5q.977-19.336-8.5-30.078t-29.395-11.133q-19.531-.391-33.984,8.887t-17.187,25.488q-3.711,21.289,28.516,33.789l25.781,9.766,14.844,6.836q57.617,28.516,53.906,80.078-1.758,25.2-16.113,43.457T2866.309-5.078Q2841.6,4.688,2811.914,4.1q-30.274-.586-53.906-12.7t-35.937-34.18q-11.524-20.508-10.742-46.875l57.227.2q-2.734,46.289,45.508,47.07,20.9,0,34.375-9.18T2864.453-75.977Z" transform="translate(1114 626)" fill="url(#linear-gradient-5)"/>
  </g>
</svg>
